<svg width="42" height="48" viewBox="0 0 42 48" fill="none" xmlns="http://www.w3.org/2000/svg">
<path fill-rule="evenodd" clip-rule="evenodd" d="M34.3004 6.22843C30.0133 2.14037 23.6974 0.861122 17.9979 2.38021C17.5275 2.50557 17.0446 2.22591 16.9193 1.75559C16.7939 1.28527 17.0736 0.802375 17.5439 0.677021C23.7625 -0.980413 30.7326 0.39061 35.5168 4.95279C35.8691 5.2887 35.8824 5.84656 35.5464 6.19882C35.2105 6.55108 34.6527 6.56433 34.3004 6.22843ZM15.2392 2.18158C15.4445 2.62292 15.2531 3.14711 14.8118 3.35238C9.16334 5.9796 5.36807 11.5119 5.36807 17.8956C5.36807 18.3824 4.97349 18.7769 4.48675 18.7769C4.00001 18.7769 3.60543 18.3824 3.60543 17.8956C3.60543 10.7839 7.83766 4.65222 14.0684 1.75416C14.5098 1.54888 15.0339 1.74025 15.2392 2.18158ZM22.2563 5.87018C19.0206 5.87018 16.084 6.97946 13.8191 8.85797C13.4444 9.1687 12.8888 9.11688 12.5781 8.74223C12.2674 8.36758 12.3192 7.81197 12.6938 7.50124C15.2759 5.35966 18.6108 4.10754 22.2563 4.10754C28.3226 4.10754 33.8189 7.48766 36.0001 12.6568C36.1893 13.1053 35.9792 13.6222 35.5308 13.8115C35.0823 14.0007 34.5654 13.7905 34.3761 13.3421C32.5031 8.90321 27.7018 5.87018 22.2563 5.87018ZM36.6724 7.31618C37.0626 7.0253 37.6148 7.10588 37.9057 7.49614C39.9546 10.2451 41.4222 13.6399 41.4222 17.4086C41.4222 18.9786 41.1435 20.219 40.8825 21.2989C40.8657 21.3686 40.849 21.4373 40.8325 21.5051C40.5897 22.5057 40.3921 23.3197 40.3921 24.2272C40.3921 24.714 39.9975 25.1086 39.5108 25.1086C39.024 25.1086 38.6295 24.714 38.6295 24.2272C38.6295 23.0996 38.8759 22.0885 39.1103 21.127C39.1301 21.0459 39.1498 20.9652 39.1692 20.8848C39.4232 19.8339 39.6596 18.7608 39.6596 17.4086C39.6596 14.1083 38.374 11.074 36.4924 8.5495C36.2015 8.15923 36.2821 7.60706 36.6724 7.31618ZM11.2111 10.1014C11.6042 10.3884 11.6902 10.9398 11.4032 11.3329C10.059 13.1738 9.48855 15.0002 9.48855 17.4086C9.48855 19.8882 9.31312 21.7233 8.58644 23.5793C7.86727 25.4162 6.6342 27.2058 4.6571 29.6517C4.35112 30.0303 3.79621 30.0891 3.41767 29.7831C3.03912 29.4771 2.9803 28.9222 3.28628 28.5437C5.24603 26.1192 6.33073 24.5059 6.94511 22.9367C7.55199 21.3867 7.7259 19.8125 7.7259 17.4086C7.7259 14.6534 8.39976 12.4571 9.97963 10.2934C10.2667 9.90035 10.818 9.81437 11.2111 10.1014ZM35.7395 15.7266C36.3502 15.3998 36.928 15.8652 37.014 16.3443C37.3195 18.0461 37.0269 19.5634 36.7011 20.9449C36.6537 21.1462 36.6058 21.3438 36.5587 21.5384C36.2737 22.7149 36.0141 23.7867 36.0141 24.9578C36.0141 26.0984 36.1968 27.4391 36.387 28.5186C36.4812 29.0531 36.5755 29.5136 36.6461 29.8398C36.6813 30.0028 36.7105 30.1318 36.7308 30.2194C36.7359 30.2412 36.9334 30.821 36.5609 31.1454C35.9941 31.6389 35.5527 31.3848 35.3235 31.2101C35.0942 31.0354 35.0396 30.7271 35.0396 30.7271C35.0396 30.7271 34.4227 28.0466 34.3519 26.6197M12.2916 22.3588C12.7548 22.5084 13.0091 23.0051 12.8595 23.4683C11.6614 27.1796 9.39126 31.114 6.08612 33.9104C5.71454 34.2248 5.15844 34.1784 4.84405 33.8069C4.52966 33.4353 4.57603 32.8792 4.94761 32.5648C7.95042 30.0242 10.0623 26.3956 11.1821 22.9268C11.3317 22.4636 11.8284 22.2093 12.2916 22.3588ZM3.35353 22.9611C3.78383 23.1886 3.94821 23.7218 3.72069 24.1521L2.94157 23.7402C3.72069 24.1521 3.72057 24.1524 3.72057 24.1524L3.72043 24.1526L3.7201 24.1532L3.71923 24.1549L3.71663 24.1598L3.70802 24.1758C3.70078 24.1892 3.69054 24.208 3.67735 24.2319C3.65099 24.2796 3.61284 24.3476 3.5634 24.433C3.46458 24.6036 3.3203 24.8443 3.13452 25.1318C2.76413 25.7049 2.22306 26.473 1.54254 27.2452C1.22073 27.6103 0.663813 27.6455 0.298638 27.3237C-0.0665374 27.0019 -0.101688 26.4449 0.220127 26.0798C0.827256 25.3908 1.31631 24.6978 1.65412 24.175C1.82245 23.9146 1.95179 23.6986 2.03807 23.5496C2.08118 23.4752 2.11345 23.4176 2.13437 23.3798C2.14482 23.3608 2.15244 23.3468 2.15714 23.3381L2.16246 23.3282L2.16256 23.328L2.16264 23.3279L2.16276 23.3276C2.39046 22.8978 2.92345 22.7337 3.35353 22.9611ZM30.6294 25.7315C31.1153 25.703 31.5323 26.0738 31.5609 26.5597C31.6595 28.2398 31.7351 29.3464 32.3674 31.5667C32.5007 32.0349 32.2292 32.5224 31.7611 32.6557C31.293 32.789 30.8054 32.5176 30.6721 32.0494C29.9905 29.6555 29.9036 28.4068 29.8012 26.6629C29.7727 26.177 30.1435 25.76 30.6294 25.7315ZM15.6378 25.8472C16.088 26.0321 16.3031 26.547 16.1183 26.9972C14.067 31.9928 10.8714 35.1893 6.85408 38.5413C6.48034 38.8531 5.92458 38.8029 5.61275 38.4292C5.30092 38.0554 5.3511 37.4997 5.72484 37.1878C9.66851 33.8974 12.6001 30.9246 14.4877 26.3277C14.6726 25.8774 15.1875 25.6623 15.6378 25.8472ZM25.8632 27.2483C26.3466 27.1916 26.7845 27.5375 26.8412 28.0209C27.6071 34.548 30.3465 40.84 34.9756 46.5643C35.2817 46.9427 35.223 47.4977 34.8445 47.8037C34.466 48.1098 33.9111 48.0511 33.6051 47.6726C28.789 41.7172 25.8993 35.1182 25.0906 28.2263C25.0338 27.7429 25.3797 27.305 25.8632 27.2483ZM18.7656 28.8925C19.2 29.1121 19.3741 29.6422 19.1545 30.0766C17.1809 33.9811 13.9959 38.2786 8.86612 41.988C8.4717 42.2733 7.92074 42.1847 7.63553 41.7903C7.35031 41.3959 7.43884 40.8449 7.83327 40.5597C12.7105 37.0329 15.7203 32.9633 17.5814 29.2814C17.801 28.847 18.3312 28.6729 18.7656 28.8925ZM22.065 31.3858C22.5401 31.2801 23.0109 31.5797 23.1166 32.0548C24.3599 37.6451 26.5771 42.6399 29.3124 46.6192C29.5881 47.0203 29.4864 47.569 29.0853 47.8447C28.6842 48.1205 28.1355 48.0188 27.8598 47.6177C24.9907 43.4438 22.686 38.2381 21.396 32.4374C21.2903 31.9623 21.5898 31.4915 22.065 31.3858ZM32.4594 34.5668C32.9099 34.3824 33.4246 34.598 33.609 35.0485C34.4363 37.0696 35.4304 38.7677 36.8757 40.7556C37.162 41.1493 37.0748 41.7005 36.6812 41.9867C36.2875 42.2729 35.7363 42.1858 35.4501 41.7921C33.9416 39.7173 32.87 37.896 31.9777 35.7163C31.7933 35.2658 32.009 34.7512 32.4594 34.5668ZM19.493 36.8742C19.3917 36.5457 19.1086 36.3061 18.7678 36.2605ZM18.7678 36.2605C18.4271 36.2148 18.091 36.3715 17.9068 36.6617ZM17.9068 36.6617L17.9038 36.6663L17.8922 36.6845C17.8815 36.701 17.8652 36.7262 17.8436 36.7592C17.8003 36.8254 17.7356 36.9231 17.6521 37.0462C17.4848 37.2926 17.2428 37.6396 16.9459 38.0385C16.3478 38.8422 15.5457 39.8314 14.6975 40.6335C14.3438 40.968 14.3282 41.5258 14.6626 41.8794C14.9971 42.2331 15.5549 42.2487 15.9085 41.9142C16.863 41.0117 17.7348 39.9309 18.36 39.0908C18.3625 39.0874 18.3651 39.0839 18.3677 39.0805C18.5469 39.5983 18.7652 40.211 19.0165 40.8826C19.7625 42.8762 20.811 45.421 22.0024 47.549C22.2401 47.9737 22.7772 48.1252 23.2019 47.8875C23.6266 47.6497 23.7781 47.1126 23.5404 46.6879C22.414 44.676 21.4022 42.2286 20.6674 40.2649C20.3015 39.287 20.0071 38.4369 19.8044 37.8319C19.7032 37.5296 19.6249 37.2888 19.5721 37.1242C19.5458 37.0419 19.5258 36.9787 19.5125 36.9364C19.5058 36.9153 19.5009 36.8994 19.4976 36.8889L19.494 36.8774L19.4932 36.8747L19.493 36.8742M17.2774 45.0891C17.7257 44.8995 18.2428 45.1092 18.4325 45.5575L18.9475 46.7751C19.1371 47.2234 18.9275 47.7405 18.4792 47.9301C18.0309 48.1198 17.5138 47.9101 17.3241 47.4618L16.8091 46.2442C16.6194 45.7959 16.8291 45.2788 17.2774 45.0891Z" fill="white"/>
<path d="M37.014 16.3443C36.928 15.8652 36.3502 15.3998 35.7395 15.7266C35.1287 16.0534 35.3055 16.7578 35.3055 16.7578C35.3055 16.7578 35.5428 17.42 35.131 19.7249C35.038 20.2461 34.7307 21.6646 34.6239 22.1094C34.5171 22.5543 34.4192 22.9389 34.3519 23.452C34.1345 25.1086 34.3278 26.1351 34.3519 26.6197C34.4227 28.0466 35.0396 30.7271 35.0396 30.7271C35.0396 30.7271 35.0942 31.0354 35.3235 31.2101C35.5527 31.3848 35.9941 31.6389 36.5609 31.1454C36.9334 30.821 36.7359 30.2412 36.7308 30.2194C36.7105 30.1318 36.6813 30.0028 36.6461 29.8398C36.5755 29.5136 36.4812 29.0531 36.387 28.5186C36.1968 27.4391 36.0141 26.0984 36.0141 24.9578C36.0141 23.7867 36.2737 22.7149 36.5587 21.5384C36.6058 21.3438 36.6537 21.1462 36.7011 20.9449C37.0269 19.5634 37.3195 18.0461 37.014 16.3443Z" fill="white"/>
<path d="M19.493 36.8742L18.7678 36.2605L17.9068 36.6617L19.493 36.8742Z" fill="white"/>
<path d="M25.7328 17.4422L29.1512 11.8701M25.7328 17.4422L29.1512 23.0143M25.7328 17.4422H18.8959M18.8959 17.4422L15.4774 11.8701M18.8959 17.4422L15.4774 23.0143" stroke="white" stroke-width="1.5" stroke-linecap="round" stroke-linejoin="round"/>
</svg>
